<svg xmlns="http://www.w3.org/2000/svg" viewBox="0 0 512 512" style="height: 512px; width: 512px;"><defs><radialGradient id="skoll-smartphone-gradient-0"><stop offset="0%" stop-color="#9013fe" stop-opacity="1"></stop><stop offset="100%" stop-color="#000000" stop-opacity="1"></stop></radialGradient></defs><path d="M0 0h512v512H0z" fill="url(#skoll-smartphone-gradient-0)"></path><g class="" transform="translate(0,0)" style=""><path d="M134.5 30.5v451h243v-451zm100.68 20h41.6a8 8 0 0 1 0 16h-41.6a8 8 0 1 1 0-16zm20.32 420.51a19.26 19.26 0 1 1 19.26-19.26 19.26 19.26 0 0 1-19.26 19.26zm105-44.51h-211v-343h211z" fill="#fff" fill-opacity="1" transform="translate(512, 512) scale(-1, -1) rotate(-180, 256, 256) skewX(0) skewY(0)"></path></g></svg>