<svg xmlns="http://www.w3.org/2000/svg" viewBox="0 0 512 512" style="height: 512px; width: 512px;"><defs><radialGradient id="delapouite-falling-star-gradient-0"><stop offset="0%" stop-color="#9013fe" stop-opacity="1"></stop><stop offset="100%" stop-color="#000000" stop-opacity="1"></stop></radialGradient></defs><path d="M0 0h512v512H0z" fill="url(#delapouite-falling-star-gradient-0)"></path><g class="" transform="translate(0,0)" style=""><path d="m166.4 25.64-12.8 12.72 160 160.04 12.8-12.8-160-159.96zm-32 95.96L128 128l-6.4 6.4 160 160 12.8-12.8-160-160zm-96.08 32L25.6 166.4l160 160 12.8-12.8-160.08-160zm314.78 86.6-29.4 84.1-85.4 26 71 54-1.7 89.2 73.2-50.8 84.4 29.1-25.7-85.3 53.8-71.2-89.1-2-51.1-73.1z" fill="#ffffff" fill-opacity="1"></path></g></svg>