<svg xmlns="http://www.w3.org/2000/svg" viewBox="0 0 512 512" style="height: 512px; width: 512px;"><defs><radialGradient id="sbed-medical-pack-alt-gradient-0"><stop offset="0%" stop-color="#9013fe" stop-opacity="1"></stop><stop offset="100%" stop-color="#000" stop-opacity="1"></stop></radialGradient></defs><path d="M0 0h512v512H0z" fill="url(#sbed-medical-pack-alt-gradient-0)"></path><g class="" transform="translate(0,0)" style=""><path d="M76 46c-33.24 0-60 26.76-60 60v300c0 33.24 26.76 60 60 60h360c33.24 0 60-26.76 60-60V106c0-33.24-26.76-60-60-60H76zm0 60h360v300H76V106zm150 60v60h-60v60h60v60h60v-60h60v-60h-60v-60h-60z" fill="#fff" fill-opacity="1" transform="translate(512, 512) scale(-1, -1) rotate(180, 256, 256) skewX(0) skewY(0)"></path></g></svg>