<svg xmlns="http://www.w3.org/2000/svg" viewBox="0 0 512 512" style="height: 512px; width: 512px;"><defs><radialGradient id="delapouite-panzerfaust-gradient-0"><stop offset="0%" stop-color="#d0021b" stop-opacity="1"></stop><stop offset="100%" stop-color="#000" stop-opacity="1"></stop></radialGradient></defs><path d="M0 0h512v512H0z" fill="url(#delapouite-panzerfaust-gradient-0)"></path><g class="" transform="translate(0,0)" style=""><path d="M227.752 139.172l51.998 54.29 13-12.45-52-54.29-12.998 12.45zM187.74 256.424l9.683 10.11 56.33-53.952-9.684-10.11-56.33 53.952zM385.14 72.18l-38.345 72.733 24.227 25.294 74.315-35.176-60.198-62.85zm15.994-9.322l54.207 56.595 7.832-35.195-26.54-27.708-35.498 6.308zM48.828 433.784l20.75 21.666 9.39-8.992-20.752-21.666-9.388 8.992zm22.388-21.442l20.75 21.665 264.318-253.164-20.75-21.666L71.215 412.342z" fill="#fff" fill-opacity="1" transform="translate(512, 512) scale(-1, -1) rotate(180, 256, 256) skewX(0) skewY(0)"></path></g></svg>